<mxfile host="65bd71144e">
    <diagram id="NJ-6w_CBJQZLZjlyz552" name="Page-1">
        <mxGraphModel dx="1974" dy="444" grid="1" gridSize="10" guides="1" tooltips="1" connect="1" arrows="1" fold="1" page="1" pageScale="1" pageWidth="850" pageHeight="1100" math="0" shadow="0">
            <root>
                <mxCell id="0"/>
                <mxCell id="1" parent="0"/>
                <mxCell id="8" style="edgeStyle=none;html=1;entryX=0.221;entryY=-0.009;entryDx=0;entryDy=0;entryPerimeter=0;" edge="1" parent="1" source="3" target="7">
                    <mxGeometry relative="1" as="geometry"/>
                </mxCell>
                <mxCell id="11" value="Parse CSV, JSON, PICKLE -&amp;gt; Dict" style="edgeLabel;html=1;align=center;verticalAlign=middle;resizable=0;points=[];" vertex="1" connectable="0" parent="8">
                    <mxGeometry x="-0.2147" y="-3" relative="1" as="geometry">
                        <mxPoint x="-71" y="-23" as="offset"/>
                    </mxGeometry>
                </mxCell>
                <mxCell id="3" value="Dataset" style="shape=cylinder3;whiteSpace=wrap;html=1;boundedLbl=1;backgroundOutline=1;size=15;" vertex="1" parent="1">
                    <mxGeometry x="90" y="40" width="60" height="80" as="geometry"/>
                </mxCell>
                <mxCell id="9" style="edgeStyle=none;html=1;exitX=0.5;exitY=1;exitDx=0;exitDy=0;exitPerimeter=0;" edge="1" parent="1" source="4" target="7">
                    <mxGeometry relative="1" as="geometry"/>
                </mxCell>
                <mxCell id="13" value="Dict (de type Dataset) -&amp;gt; with an 'output'=...." style="edgeLabel;html=1;align=center;verticalAlign=middle;resizable=0;points=[];" vertex="1" connectable="0" parent="9">
                    <mxGeometry x="-0.4194" y="-3" relative="1" as="geometry">
                        <mxPoint x="3" y="25" as="offset"/>
                    </mxGeometry>
                </mxCell>
                <mxCell id="4" value="Generate" style="shape=cylinder3;whiteSpace=wrap;html=1;boundedLbl=1;backgroundOutline=1;size=15;" vertex="1" parent="1">
                    <mxGeometry x="290" y="40" width="60" height="80" as="geometry"/>
                </mxCell>
                <mxCell id="5" value="Example" style="shape=cylinder3;whiteSpace=wrap;html=1;boundedLbl=1;backgroundOutline=1;size=15;" vertex="1" parent="1">
                    <mxGeometry x="710" y="40" width="60" height="80" as="geometry"/>
                </mxCell>
                <mxCell id="6" value="Inférence" style="shape=cylinder3;whiteSpace=wrap;html=1;boundedLbl=1;backgroundOutline=1;size=15;" vertex="1" parent="1">
                    <mxGeometry x="480" y="40" width="60" height="80" as="geometry"/>
                </mxCell>
                <mxCell id="25" style="edgeStyle=none;html=1;exitX=0.517;exitY=1.005;exitDx=0;exitDy=0;exitPerimeter=0;" edge="1" parent="1" source="7">
                    <mxGeometry relative="1" as="geometry">
                        <mxPoint x="272" y="700" as="targetPoint"/>
                        <mxPoint x="350" y="630" as="sourcePoint"/>
                    </mxGeometry>
                </mxCell>
                <mxCell id="7" value="HostaData" style="rounded=1;whiteSpace=wrap;html=1;" vertex="1" parent="1">
                    <mxGeometry x="50" y="280" width="430" height="280" as="geometry"/>
                </mxCell>
                <mxCell id="16" value="SampleType" style="rounded=1;whiteSpace=wrap;html=1;" vertex="1" parent="1">
                    <mxGeometry x="330" y="320" width="120" height="60" as="geometry"/>
                </mxCell>
                <mxCell id="12" value="Output_specified&lt;br&gt;csv -&amp;gt; name of a colonne or last if not given &lt;br&gt;(ex output)&lt;br&gt;jsonl -&amp;gt; name of an id or last if not given&lt;br&gt;pickle -&amp;gt; ?" style="text;html=1;align=left;verticalAlign=middle;resizable=0;points=[];autosize=1;strokeColor=none;fillColor=none;" vertex="1" parent="1">
                    <mxGeometry x="-110" y="160" width="260" height="90" as="geometry"/>
                </mxCell>
                <mxCell id="20" style="edgeStyle=none;html=1;exitX=0.5;exitY=1;exitDx=0;exitDy=0;exitPerimeter=0;entryX=1;entryY=0.5;entryDx=0;entryDy=0;" edge="1" parent="1" source="6" target="16">
                    <mxGeometry relative="1" as="geometry">
                        <Array as="points">
                            <mxPoint x="530" y="330"/>
                        </Array>
                    </mxGeometry>
                </mxCell>
                <mxCell id="21" value="Parse the input with a parser and&amp;nbsp;&lt;br&gt;convert it with an output =&amp;gt; None" style="edgeLabel;html=1;align=center;verticalAlign=middle;resizable=0;points=[];" vertex="1" connectable="0" parent="20">
                    <mxGeometry x="-0.4859" y="3" relative="1" as="geometry">
                        <mxPoint as="offset"/>
                    </mxGeometry>
                </mxCell>
                <mxCell id="24" value="Sample provide a parser of dict and other type to iterate and convert" style="edgeLabel;html=1;align=center;verticalAlign=middle;resizable=0;points=[];" vertex="1" connectable="0" parent="20">
                    <mxGeometry x="-0.0455" y="1" relative="1" as="geometry">
                        <mxPoint x="6" y="-29" as="offset"/>
                    </mxGeometry>
                </mxCell>
                <mxCell id="22" value="" style="endArrow=classic;html=1;" edge="1" parent="1">
                    <mxGeometry width="50" height="50" relative="1" as="geometry">
                        <mxPoint x="270" y="400" as="sourcePoint"/>
                        <mxPoint x="320" y="350" as="targetPoint"/>
                        <Array as="points">
                            <mxPoint x="270" y="350"/>
                        </Array>
                    </mxGeometry>
                </mxCell>
                <mxCell id="23" value="Sample a dict into a List[Sample]" style="edgeLabel;html=1;align=center;verticalAlign=middle;resizable=0;points=[];" vertex="1" connectable="0" parent="22">
                    <mxGeometry x="0.1802" y="-3" relative="1" as="geometry">
                        <mxPoint x="-69" y="17" as="offset"/>
                    </mxGeometry>
                </mxCell>
                <mxCell id="28" value="The convert_to_sample type correspond at hostadata.fit()&amp;nbsp;" style="text;html=1;strokeColor=none;fillColor=none;align=center;verticalAlign=middle;whiteSpace=wrap;rounded=0;" vertex="1" parent="1">
                    <mxGeometry x="80" y="490" width="130" height="40" as="geometry"/>
                </mxCell>
                <mxCell id="45" style="edgeStyle=none;html=1;exitX=0.5;exitY=1;exitDx=0;exitDy=0;entryX=0.5;entryY=0;entryDx=0;entryDy=0;" edge="1" parent="1" source="29" target="42">
                    <mxGeometry relative="1" as="geometry"/>
                </mxCell>
                <mxCell id="29" value="&lt;h3 style=&quot;margin: 0 0 0 40px; border: none; padding: 0px;&quot;&gt;&lt;br&gt;&lt;/h3&gt;" style="rounded=0;whiteSpace=wrap;html=1;align=left;" vertex="1" parent="1">
                    <mxGeometry x="110" y="700" width="330" height="350" as="geometry"/>
                </mxCell>
                <mxCell id="30" value="Besoin d'un data.sample + des infos d'une func&lt;br&gt;&lt;br&gt;parcours chaque elem de la list&lt;br&gt;&lt;br&gt;&lt;div style=&quot;&quot;&gt;&lt;span style=&quot;background-color: initial;&quot;&gt;si output.type == Literal (alors on fait une classification)&amp;nbsp;&lt;/span&gt;&lt;/div&gt;&lt;div style=&quot;&quot;&gt;&lt;span style=&quot;background-color: initial;&quot;&gt;&lt;span style=&quot;white-space: pre;&quot;&gt;&#9;&lt;/span&gt;- mapping des id d'output&lt;/span&gt;&lt;/div&gt;&lt;span style=&quot;white-space: pre;&quot;&gt;&#9;&lt;/span&gt;- Vérification si les outputs correspondent au mapping&lt;br&gt;sinon encodage simple&lt;br&gt;&lt;br&gt;parcourc chaque éléments de la list&lt;br&gt;&amp;nbsp;- encode les inputs&lt;br&gt;&lt;span style=&quot;white-space: pre;&quot;&gt;&#9;&lt;/span&gt;- encoder simple&amp;nbsp;&lt;br&gt;&lt;span style=&quot;white-space: pre;&quot;&gt;&#9;&lt;span style=&quot;white-space: pre;&quot;&gt;&#9;&lt;/span&gt;&lt;/span&gt;- si str (créer son propre dictionnaire de w2v)&lt;br&gt;- encode les outputs&lt;br&gt;&amp;nbsp;&lt;span style=&quot;white-space: pre;&quot;&gt;&#9;&lt;/span&gt;- si classification&amp;nbsp;&lt;br&gt;&lt;span style=&quot;white-space: pre;&quot;&gt;&#9;&lt;/span&gt;&lt;span style=&quot;white-space: pre;&quot;&gt;&#9;&lt;/span&gt;- encoder_classification&lt;br&gt;&lt;span style=&quot;white-space: pre;&quot;&gt;&#9;&lt;/span&gt;- sinon&lt;br&gt;&lt;span style=&quot;white-space: pre;&quot;&gt;&#9;&lt;/span&gt;&lt;span style=&quot;white-space: pre;&quot;&gt;&#9;&lt;/span&gt;- encoder simple&lt;br&gt;&lt;br&gt;&lt;br&gt;---------&lt;br&gt;si sample.output == None (que c'est le param d'inférence)&lt;br&gt;on load le data.dictionnary (si il y en a un)&lt;br&gt;et on encode l'input&lt;br&gt;" style="text;html=1;strokeColor=none;fillColor=none;align=left;verticalAlign=middle;whiteSpace=wrap;rounded=0;" vertex="1" parent="1">
                    <mxGeometry x="115" y="720" width="325" height="310" as="geometry"/>
                </mxCell>
                <mxCell id="35" value="&lt;span style=&quot;color: rgba(0, 0, 0, 0); font-family: monospace; font-size: 0px; text-align: start;&quot;&gt;%3CmxGraphModel%3E%3Croot%3E%3CmxCell%20id%3D%220%22%2F%3E%3CmxCell%20id%3D%221%22%20parent%3D%220%22%2F%3E%3CmxCell%20id%3D%222%22%20value%3D%22The%20convert_to_sample%20type%20correspond%20at%20hostadata.fit()%26amp%3Bnbsp%3B%22%20style%3D%22text%3Bhtml%3D1%3BstrokeColor%3Dnone%3BfillColor%3Dnone%3Balign%3Dcenter%3BverticalAlign%3Dmiddle%3BwhiteSpace%3Dwrap%3Brounded%3D0%3B%22%20vertex%3D%221%22%20parent%3D%221%22%3E%3CmxGeometry%20x%3D%2280%22%20y%3D%22490%22%20width%3D%22130%22%20height%3D%2240%22%20as%3D%22geometry%22%2F%3E%3C%2FmxCell%3E%3C%2Froot%3E%3C%2FmxGraphModel%3E&lt;/span&gt;&lt;h2&gt;hostadata.encode&lt;/h2&gt;" style="text;html=1;strokeColor=none;fillColor=none;align=center;verticalAlign=middle;whiteSpace=wrap;rounded=0;" vertex="1" parent="1">
                    <mxGeometry x="130" y="660" width="110" height="30" as="geometry"/>
                </mxCell>
                <mxCell id="36" value="" style="whiteSpace=wrap;html=1;aspect=fixed;" vertex="1" parent="1">
                    <mxGeometry x="-430" y="350" width="390" height="390" as="geometry"/>
                </mxCell>
                <mxCell id="37" value="il y a :&lt;br&gt;&#9;- config.json&lt;br&gt;&#9;- model.pth&lt;br&gt;&#9;- tokenizer.txt (ou pickle mais il devrait être visible enregistrée sour la form d'un dict)&lt;br&gt;&lt;br&gt;&lt;br&gt;LES PARAMS DE NORMALIZE N'Y SONT PLUS (ON NORMALIZE AVEC TORCH ET DONC SI LA FONCTION PYTHON CHANGE LE DATASET SE REFAIT....)&lt;br&gt;" style="text;html=1;strokeColor=none;fillColor=none;align=left;verticalAlign=middle;whiteSpace=wrap;rounded=0;" vertex="1" parent="1">
                    <mxGeometry x="-395" y="380" width="320" height="330" as="geometry"/>
                </mxCell>
                <mxCell id="39" value="&lt;h4&gt;data.sample = List[Sample]&lt;/h4&gt;" style="text;html=1;strokeColor=none;fillColor=none;align=center;verticalAlign=middle;whiteSpace=wrap;rounded=0;" vertex="1" parent="1">
                    <mxGeometry x="100" y="570" width="180" height="30" as="geometry"/>
                </mxCell>
                <mxCell id="40" value="&lt;h4&gt;data.sample_encoded = List(Sample)&lt;/h4&gt;" style="text;html=1;strokeColor=none;fillColor=none;align=center;verticalAlign=middle;whiteSpace=wrap;rounded=0;" vertex="1" parent="1">
                    <mxGeometry x="-10" y="1060" width="330" height="30" as="geometry"/>
                </mxCell>
                <mxCell id="47" style="edgeStyle=none;html=1;exitX=0.5;exitY=1;exitDx=0;exitDy=0;" edge="1" parent="1" source="42" target="46">
                    <mxGeometry relative="1" as="geometry"/>
                </mxCell>
                <mxCell id="42" value="JSP encore, vu que c'est optionnel et désactivé par défaut" style="rounded=0;whiteSpace=wrap;html=1;" vertex="1" parent="1">
                    <mxGeometry x="110" y="1200" width="325" height="80" as="geometry"/>
                </mxCell>
                <mxCell id="43" value="&lt;span style=&quot;color: rgba(0, 0, 0, 0); font-family: monospace; font-size: 0px; text-align: start;&quot;&gt;%3CmxGraphModel%3E%3Croot%3E%3CmxCell%20id%3D%220%22%2F%3E%3CmxCell%20id%3D%221%22%20parent%3D%220%22%2F%3E%3CmxCell%20id%3D%222%22%20value%3D%22The%20convert_to_sample%20type%20correspond%20at%20hostadata.fit()%26amp%3Bnbsp%3B%22%20style%3D%22text%3Bhtml%3D1%3BstrokeColor%3Dnone%3BfillColor%3Dnone%3Balign%3Dcenter%3BverticalAlign%3Dmiddle%3BwhiteSpace%3Dwrap%3Brounded%3D0%3B%22%20vertex%3D%221%22%20parent%3D%221%22%3E%3CmxGeometry%20x%3D%2280%22%20y%3D%22490%22%20width%3D%22130%22%20height%3D%2240%22%20as%3D%22geometry%22%2F%3E%3C%2FmxCell%3E%3C%2Froot%3E%3C%2FmxGraphModel%3E&lt;/span&gt;&lt;h2&gt;hostadata.normalize&lt;/h2&gt;" style="text;html=1;strokeColor=none;fillColor=none;align=center;verticalAlign=middle;whiteSpace=wrap;rounded=0;" vertex="1" parent="1">
                    <mxGeometry x="130" y="1160" width="110" height="30" as="geometry"/>
                </mxCell>
                <mxCell id="46" value="" style="rounded=0;whiteSpace=wrap;html=1;" vertex="1" parent="1">
                    <mxGeometry x="110" y="1340" width="325" height="120" as="geometry"/>
                </mxCell>
                <mxCell id="48" value="&lt;span style=&quot;color: rgba(0, 0, 0, 0); font-family: monospace; font-size: 0px; text-align: start;&quot;&gt;%3CmxGraphModel%3E%3Croot%3E%3CmxCell%20id%3D%220%22%2F%3E%3CmxCell%20id%3D%221%22%20parent%3D%220%22%2F%3E%3CmxCell%20id%3D%222%22%20value%3D%22The%20convert_to_sample%20type%20correspond%20at%20hostadata.fit()%26amp%3Bnbsp%3B%22%20style%3D%22text%3Bhtml%3D1%3BstrokeColor%3Dnone%3BfillColor%3Dnone%3Balign%3Dcenter%3BverticalAlign%3Dmiddle%3BwhiteSpace%3Dwrap%3Brounded%3D0%3B%22%20vertex%3D%221%22%20parent%3D%221%22%3E%3CmxGeometry%20x%3D%2280%22%20y%3D%22490%22%20width%3D%22130%22%20height%3D%2240%22%20as%3D%22geometry%22%2F%3E%3C%2FmxCell%3E%3C%2Froot%3E%3C%2FmxGraphModel%3E&lt;/span&gt;&lt;h2&gt;hostadata.tensor&lt;/h2&gt;" style="text;html=1;strokeColor=none;fillColor=none;align=center;verticalAlign=middle;whiteSpace=wrap;rounded=0;" vertex="1" parent="1">
                    <mxGeometry x="120" y="1302" width="110" height="30" as="geometry"/>
                </mxCell>
                <mxCell id="55" style="edgeStyle=none;html=1;exitX=0.5;exitY=1;exitDx=0;exitDy=0;entryX=0.5;entryY=0;entryDx=0;entryDy=0;" edge="1" parent="1" source="49" target="51">
                    <mxGeometry relative="1" as="geometry"/>
                </mxCell>
                <mxCell id="49" value="Check parce que le to_tensor peut se faire automaitquement dans le normalizer donc à voir" style="text;html=1;strokeColor=none;fillColor=none;align=center;verticalAlign=middle;whiteSpace=wrap;rounded=0;" vertex="1" parent="1">
                    <mxGeometry x="120" y="1330" width="300" height="130" as="geometry"/>
                </mxCell>
                <mxCell id="50" value="&lt;h4&gt;data.sample_tensor = List(Torch)&lt;/h4&gt;" style="text;html=1;strokeColor=none;fillColor=none;align=center;verticalAlign=middle;whiteSpace=wrap;rounded=0;" vertex="1" parent="1">
                    <mxGeometry x="10" y="1460" width="330" height="30" as="geometry"/>
                </mxCell>
                <mxCell id="51" value="" style="rounded=0;whiteSpace=wrap;html=1;" vertex="1" parent="1">
                    <mxGeometry x="107.5" y="1518" width="325" height="120" as="geometry"/>
                </mxCell>
                <mxCell id="52" value="&lt;span style=&quot;color: rgba(0, 0, 0, 0); font-family: monospace; font-size: 0px; text-align: start;&quot;&gt;%3CmxGraphModel%3E%3Croot%3E%3CmxCell%20id%3D%220%22%2F%3E%3CmxCell%20id%3D%221%22%20parent%3D%220%22%2F%3E%3CmxCell%20id%3D%222%22%20value%3D%22The%20convert_to_sample%20type%20correspond%20at%20hostadata.fit()%26amp%3Bnbsp%3B%22%20style%3D%22text%3Bhtml%3D1%3BstrokeColor%3Dnone%3BfillColor%3Dnone%3Balign%3Dcenter%3BverticalAlign%3Dmiddle%3BwhiteSpace%3Dwrap%3Brounded%3D0%3B%22%20vertex%3D%221%22%20parent%3D%221%22%3E%3CmxGeometry%20x%3D%2280%22%20y%3D%22490%22%20width%3D%22130%22%20height%3D%2240%22%20as%3D%22geometry%22%2F%3E%3C%2FmxCell%3E%3C%2Froot%3E%3C%2FmxGraphModel%3E&lt;/span&gt;&lt;h2&gt;hostadata.load&lt;/h2&gt;" style="text;html=1;strokeColor=none;fillColor=none;align=center;verticalAlign=middle;whiteSpace=wrap;rounded=0;" vertex="1" parent="1">
                    <mxGeometry x="120" y="1480" width="110" height="30" as="geometry"/>
                </mxCell>
                <mxCell id="53" value="Dataloader, juste pour le training, on peut forcer un test sample (cependant le test à meilleur temps de se faire à la fin avec des exemples)&lt;br&gt;le processus de ça va recommencer avec les examples pour l'entrainement" style="text;html=1;strokeColor=none;fillColor=none;align=center;verticalAlign=middle;whiteSpace=wrap;rounded=0;" vertex="1" parent="1">
                    <mxGeometry x="122.5" y="1538" width="295" height="80" as="geometry"/>
                </mxCell>
            </root>
        </mxGraphModel>
    </diagram>
</mxfile>